<?xml version="1.0" standalone="no"?><!DOCTYPE svg PUBLIC "-//W3C//DTD SVG 1.1//EN" "http://www.w3.org/Graphics/SVG/1.1/DTD/svg11.dtd"><svg t="1539660470658" class="icon" style="" viewBox="0 0 1024 1024" version="1.1" xmlns="http://www.w3.org/2000/svg" p-id="5646" xmlns:xlink="http://www.w3.org/1999/xlink" width="200" height="200"><defs><style type="text/css"></style></defs><path d="M913.137053 436.752202 584.278163 130.172735c-19.289322-18.569938-40.664142-29.813003-66.070788-29.875424-25.117051 0-47.718815 11.555174-65.00041 28.688389L136.434346 436.548564c-15.782451 16.154935-20.344351 40.030715-11.579733 60.873416 8.758478 20.828374 29.015847 34.281781 51.609425 34.281781l43.843554 0 0 311.99992c0 48.53132 39.46892 88.00024 88.00024 88.00024l151.999856-0.101307-0.00614-254.562766L587.637678 677.039847l-0.203638 254.562766 152.87376 0.101307c48.532343 0 88.00024-39.46892 88.00024-88.00024L828.308039 531.703761l44.595684 0c22.531156 0 42.773176-13.406335 51.561329-34.154891C933.261393 476.798267 928.808988 452.938859 913.137053 436.752202zM880.261295 478.828506c-1.257643 2.969635-4.140297 4.875031-23.357987 4.875031l-76.595492 0 0 360.000144c0 22.062482-17.936511 40.000016-40.000016 40.000016L635.637902 883.703697 635.637902 668.907633c0-21.983687-16.242939-39.866986-36.20355-39.866986L448.511014 629.040646c-19.967774 0-36.20969 17.883299-36.20969 39.866986l0 214.797088L308.307831 883.70472c-22.062482 0-40.000016-17.937534-40.000016-40.000016L268.307815 483.70456l-91.842755 0c-3.219321 0-6.109138-1.921769-7.358595-4.889357-1.26583-2.986007-0.60989-6.391571 1.632173-8.704243l317.569776-308.406069c7.267521-7.265474 18.46863-12.851703 30.000268-12.851703 11.43033 0.031722 22.343891 4.414543 30.68793 13.866822l329.656045 307.422671C880.902908 472.454332 881.527125 475.860918 880.261295 478.828506z" p-id="5647" fill="#bfbfbf"></path></svg>